<?xml version="1.0" standalone="no"?>
<!DOCTYPE svg PUBLIC "-//W3C//DTD SVG 20010904//EN"
 "http://www.w3.org/TR/2001/REC-SVG-20010904/DTD/svg10.dtd">
<svg version="1.0" xmlns="http://www.w3.org/2000/svg"
 width="431.000000pt" height="386.000000pt" viewBox="0 0 431.000000 386.000000"
 preserveAspectRatio="xMidYMid meet">

<g transform="translate(0.000000,386.000000) scale(0.100000,-0.100000)"
fill="#000000" stroke="none">
<path d="M1921 3794 c-80 -8 -176 -23 -215 -33 -39 -11 -178 -72 -308 -136
-194 -96 -244 -125 -277 -161 -23 -24 -41 -53 -41 -64 0 -13 -10 -24 -25 -30
-17 -6 -33 -26 -46 -57 -29 -69 -64 -110 -125 -149 -29 -19 -59 -44 -66 -57
-9 -15 -13 -69 -14 -167 -1 -136 -3 -151 -32 -237 -18 -50 -35 -118 -38 -150
-6 -51 -2 -68 24 -130 30 -71 30 -73 25 -205 -7 -150 -5 -158 97 -433 26 -71
63 -191 80 -265 39 -158 63 -211 121 -265 110 -102 115 -109 110 -170 -2 -24
-46 -64 -110 -99 -26 -14 -115 -43 -197 -65 -82 -22 -169 -47 -194 -56 -32
-11 -112 -19 -285 -26 -192 -7 -246 -13 -275 -27 -39 -19 -59 -54 -67 -113 -5
-37 -4 -40 32 -54 39 -17 39 -20 -2 -63 -7 -7 -13 -20 -13 -28 0 -12 6 -11 30
6 16 11 32 25 35 30 10 16 23 11 27 -10 3 -19 4 -19 44 -1 66 30 94 35 51 10
-45 -28 -43 -45 7 -41 48 4 46 -9 -7 -31 -55 -22 -117 -73 -117 -96 0 -10 9
-26 19 -35 18 -17 21 -17 46 0 14 9 30 25 36 35 8 17 39 27 39 14 0 -3 -13
-26 -29 -52 -46 -74 -48 -97 -15 -130 16 -15 27 -34 26 -41 -2 -9 98 -12 475
-12 l479 0 12 123 c12 116 52 320 65 334 15 14 52 -38 107 -147 58 -115 117
-206 127 -197 3 3 -20 50 -51 103 -31 54 -56 101 -56 104 0 3 10 11 21 18 19
12 25 10 58 -22 40 -39 51 -44 51 -21 0 23 7 19 83 -36 74 -54 111 -60 81 -14
-22 34 -6 32 34 -4 22 -20 32 -39 32 -58 0 -51 -12 -55 -59 -18 -24 19 -48 35
-53 35 -15 0 9 -36 47 -69 36 -32 55 -39 55 -21 0 23 21 7 66 -50 l47 -60 339
0 338 0 136 97 c142 101 228 184 259 249 10 21 34 92 54 158 20 66 41 121 47
123 16 5 26 -174 13 -241 -20 -109 -91 -293 -135 -351 l-26 -35 89 0 c50 0
111 -3 136 -6 45 -6 46 -7 73 -71 38 -89 49 -94 175 -91 l104 3 5 75 5 75 55
7 c30 3 160 6 288 7 127 1 232 5 232 10 0 11 -100 21 -208 21 -47 0 -83 2 -80
6 3 3 63 11 133 19 189 21 285 53 285 94 0 11 -11 43 -25 72 -15 32 -22 62
-19 76 4 13 2 23 -2 23 -5 0 -15 4 -23 9 -13 8 -13 12 -1 26 12 15 10 20 -20
43 -55 43 -147 256 -200 464 -47 183 -60 295 -70 618 -6 173 -15 344 -21 380
-14 86 -66 242 -128 381 l-50 113 19 31 c24 39 25 66 5 106 -15 28 -14 31 15
74 25 36 32 57 32 99 2 86 -43 143 -143 182 -73 28 -87 48 -104 146 -4 29 -13
42 -36 53 -16 9 -44 38 -60 66 -21 33 -45 57 -73 71 -22 11 -100 79 -172 150
-123 122 -135 130 -202 153 -82 28 -192 49 -337 65 -55 7 -156 23 -224 36
-142 27 -229 29 -450 8z m319 -189 c54 -30 105 -53 112 -50 7 3 41 -15 76 -40
34 -25 62 -41 62 -37 0 5 -36 42 -80 81 -44 40 -80 77 -80 82 0 5 45 -21 101
-57 55 -37 102 -64 105 -61 3 2 -26 32 -63 66 -37 33 -62 61 -55 61 17 0 87
-36 140 -72 24 -17 45 -28 48 -26 2 2 -14 22 -36 43 -22 22 -40 43 -40 48 0 5
37 7 83 5 75 -3 92 -8 207 -61 69 -32 131 -61 138 -64 8 -3 12 4 12 20 0 48
24 53 86 16 74 -44 111 -82 119 -120 5 -21 17 -37 38 -48 17 -9 52 -35 77 -58
26 -24 54 -43 64 -43 9 0 16 -4 16 -10 0 -16 -33 -11 -65 10 -16 11 -41 20
-55 20 -15 0 -31 5 -36 10 -7 7 -29 6 -70 -5 -78 -20 -110 -13 -231 52 -57 30
-103 52 -103 49 0 -3 27 -23 59 -46 33 -22 62 -43 64 -47 6 -9 -749 -6 -1012
3 l-175 6 -57 55 c-32 30 -62 68 -68 84 -13 36 -1 38 43 4 38 -29 61 -33 52
-9 -5 13 -1 15 24 12 17 -3 33 -2 35 2 2 3 -25 26 -61 50 -84 57 -104 83 -34
43 147 -82 141 -80 75 -19 -75 70 -58 73 82 15 200 -83 273 -107 273 -90 0 5
-43 39 -95 76 -53 38 -94 70 -91 72 2 2 32 -7 67 -21 78 -32 93 -32 54 -1 -43
35 -27 31 75 -20 49 -25 93 -45 96 -45 13 0 -27 38 -76 71 -55 37 -67 65 -25
55 14 -4 70 -31 125 -61z m695 9 c22 -9 13 -30 -12 -26 -11 1 -42 12 -69 23
l-49 20 57 -6 c31 -3 64 -8 73 -11z m-1405 -279 c22 -26 0 -16 -46 22 -25 20
-50 46 -56 57 -11 20 74 -46 102 -79z m-90 20 c65 -41 40 -40 -29 1 -33 20
-61 38 -61 40 0 7 50 -16 90 -41z m-112 -26 c51 -22 48 -44 -6 -35 -33 5 -82
40 -82 58 0 10 25 4 88 -23z m348 -134 c4 -9 19 -15 36 -15 25 0 29 -3 22 -17
-4 -10 -7 -30 -7 -45 0 -31 -1 -32 -26 -18 -13 6 -24 5 -37 -5 -28 -21 -37
-18 -30 10 5 19 1 27 -21 39 -27 15 -26 17 7 20 8 0 19 11 25 24 11 26 23 28
31 7z m-303 -45 c20 0 20 -1 2 -20 -14 -16 -16 -23 -7 -32 21 -21 13 -27 -19
-15 -26 10 -32 9 -43 -6 -18 -24 -26 -21 -26 7 0 14 -9 31 -21 40 -21 14 -21
14 7 18 21 2 30 9 32 26 l3 22 26 -20 c14 -11 35 -20 46 -20z m1382 0 c215 -5
459 -11 542 -12 l153 -3 0 -70 0 -70 -42 3 c-24 1 -344 18 -713 37 -368 19
-709 38 -757 41 l-88 7 0 27 c0 67 -13 64 264 56 138 -3 427 -11 641 -16z
m-1701 -38 c30 6 32 1 10 -24 -14 -14 -14 -20 -4 -33 18 -22 7 -28 -24 -14
-22 10 -29 9 -44 -4 -25 -23 -30 -21 -24 8 3 18 -1 30 -13 39 -17 12 -17 13 4
19 14 3 21 13 21 28 l0 22 24 -23 c17 -15 33 -21 50 -18z m456 -107 c7 -8 26
-15 42 -15 28 0 28 -1 14 -21 -11 -16 -12 -28 -5 -47 9 -25 9 -25 -16 -8 -24
16 -27 16 -55 -4 l-30 -21 6 31 c6 26 3 32 -15 37 -27 7 -27 23 0 23 12 0 23
8 26 20 6 24 16 25 33 5z m2091 -21 c17 -8 29 -17 27 -19 -5 -5 -108 21 -116
29 -12 13 61 5 89 -10z m-1416 -34 c508 -18 760 -31 935 -45 169 -15 330 -44
356 -66 13 -10 29 -67 22 -74 -2 -3 -33 4 -69 15 -69 22 -257 60 -291 60 -42
0 -5 -15 91 -36 54 -12 134 -37 177 -56 69 -29 75 -33 49 -36 -16 -2 -190 8
-385 22 -195 14 -548 37 -785 51 -236 15 -440 29 -453 31 -21 4 -23 8 -17 52
12 94 11 92 58 92 23 0 164 -5 312 -10z m-1130 -72 c-7 -4 -32 -10 -56 -13
-42 -6 -43 -6 -19 9 14 8 26 19 26 25 1 6 2 16 3 22 0 6 14 0 30 -13 19 -16
24 -25 16 -30z m2509 4 c9 -14 -6 -52 -20 -52 -16 0 -45 40 -38 52 7 10 51 11
58 0z m-1860 -23 c11 -16 22 -20 40 -17 30 6 31 1 11 -26 -8 -11 -13 -28 -9
-38 6 -21 1 -22 -27 -7 -16 8 -25 7 -38 -5 -23 -21 -33 -20 -30 2 3 32 -1 42
-16 42 -24 0 -17 18 8 22 14 2 23 11 25 26 4 28 17 28 36 1z m1985 5 c11 -9
-14 -59 -48 -94 -62 -66 -74 -53 -44 49 l18 59 35 -5 c19 -3 37 -7 39 -9z
m-2401 -35 c11 -17 20 -20 44 -15 l30 6 -16 -25 c-13 -20 -14 -30 -5 -46 15
-29 6 -34 -26 -13 -25 16 -27 16 -50 -6 l-25 -23 0 31 c0 20 -7 36 -21 46
l-21 14 23 4 c13 2 28 13 34 26 12 27 17 28 33 1z m-208 -30 c0 -5 -14 -3 -30
3 -22 7 -34 7 -45 -2 -8 -6 -20 -10 -27 -7 -7 3 7 14 32 26 42 19 46 19 58 4
6 -9 12 -20 12 -24z m-125 -119 c27 0 27 -1 11 -19 -11 -13 -15 -27 -11 -40 7
-24 5 -25 -29 -9 -21 9 -29 8 -44 -5 -25 -23 -30 -21 -24 9 3 20 0 26 -17 31
-28 7 -27 21 2 25 12 2 26 13 32 25 9 22 10 22 30 3 12 -11 34 -20 50 -20z
m1486 -50 c334 -33 578 -64 652 -81 29 -7 52 -19 58 -31 6 -11 9 -21 7 -23 -2
-3 -28 2 -58 10 -74 19 -228 34 -434 41 -160 7 -174 6 -211 -14 -66 -33 -177
-51 -386 -64 -161 -10 -206 -9 -252 2 -44 10 -113 12 -309 6 -139 -3 -268 -9
-286 -12 l-34 -7 7 59 c11 91 21 96 228 112 75 6 97 5 97 -5 0 -18 30 -32 121
-55 105 -26 194 -13 127 20 -19 9 -20 11 -5 11 31 1 10 18 -40 32 -47 13 -47
14 -18 20 17 3 120 7 231 8 160 1 260 -4 505 -29z m1213 1 c9 -14 -68 -70 -81
-58 -3 3 -2 19 2 36 6 27 11 31 40 31 19 0 36 -4 39 -9z m-1951 -28 c-7 -2
-19 -2 -25 0 -7 3 -2 5 12 5 14 0 19 -2 13 -5z m1805 1 c13 -4 21 -12 19 -18
-8 -24 -78 -30 -215 -17 -227 20 -245 25 -112 32 182 8 283 9 308 3z m-2352
-113 c-17 -33 -46 -59 -46 -42 0 18 44 80 52 75 4 -3 1 -18 -6 -33z m1904
-116 c7 -8 11 -17 9 -20 -4 -3 -132 -9 -697 -31 l-163 -6 12 26 c7 15 21 26
33 27 12 0 188 8 391 18 204 9 377 14 386 10 9 -5 22 -15 29 -24z m-1238 -65
c-3 -20 -9 -25 -33 -25 -21 0 -29 5 -29 17 0 9 -4 19 -9 23 -6 3 0 16 12 28
l22 23 20 -21 c12 -12 19 -30 17 -45z m-192 0 c-4 -8 -6 -20 -3 -25 2 -7 -11
-11 -31 -11 -25 0 -32 4 -28 14 3 8 -3 21 -13 28 -15 12 -16 14 -3 14 8 0 21
7 28 15 10 13 15 12 35 -3 15 -11 20 -22 15 -32z m-363 10 c13 0 14 -3 5 -12
-7 -7 -12 -19 -12 -28 0 -12 -9 -17 -30 -17 -17 0 -30 6 -30 13 0 7 -3 19 -6
28 -4 10 -1 16 9 16 8 0 18 8 22 18 6 16 7 16 16 0 6 -10 17 -18 26 -18z m178
0 c17 0 20 -16 4 -25 -6 -4 -8 -12 -6 -19 3 -8 -7 -12 -28 -12 -19 0 -31 4
-28 9 3 4 -3 17 -13 28 -16 18 -16 19 5 19 12 0 24 7 28 16 5 15 7 15 15 0 5
-9 16 -16 23 -16z m683 -97 c6 -9 12 -37 12 -62 0 -66 9 -91 36 -101 14 -6 34
-31 50 -62 87 -172 211 -274 364 -299 71 -12 194 -5 306 16 40 8 81 11 92 8
14 -3 24 2 32 19 7 12 26 37 42 55 17 17 43 57 58 89 l28 58 35 -69 c49 -97
61 -143 48 -177 -14 -37 -27 -35 -53 7 -28 48 -34 37 -13 -25 18 -55 14 -80
-6 -36 -21 46 -57 29 -39 -19 37 -97 46 -319 14 -338 -8 -4 -14 -21 -14 -38 0
-30 -20 -70 -51 -101 -9 -9 -19 -42 -23 -77 -4 -34 -12 -61 -18 -61 -5 0 -8 7
-5 15 4 8 2 17 -2 20 -5 2 -14 -16 -20 -41 -7 -26 -16 -42 -22 -38 -6 3 -13
-3 -16 -15 -3 -12 -9 -21 -14 -21 -13 0 -109 -70 -109 -80 0 -4 7 -13 15 -20
23 -19 18 -30 -22 -46 -21 -8 -50 -21 -64 -29 -19 -11 -29 -11 -37 -3 -8 8
-21 7 -50 -6 -45 -20 -98 -24 -114 -8 -20 20 -35 14 -99 -43 -64 -57 -81 -63
-123 -43 -21 9 -29 8 -44 -5 -17 -16 -209 -46 -309 -48 -66 -2 -89 6 -149 52
-37 28 -61 39 -86 39 -19 0 -68 9 -109 20 -41 11 -85 20 -99 20 -18 0 -31 11
-47 38 -13 20 -41 58 -64 83 -34 40 -42 56 -49 112 -10 70 -37 157 -94 303
-53 136 -77 385 -36 376 8 -2 56 -6 105 -9 170 -10 300 24 408 106 88 66 128
131 182 296 55 166 71 202 93 208 27 8 66 -3 80 -20z m977 -4 c4 -11 5 -23 2
-25 -3 -3 -132 -12 -288 -20 -156 -8 -354 -18 -439 -23 -85 -5 -156 -8 -157
-8 -1 1 -4 14 -8 28 l-7 27 139 7 c149 8 654 31 715 34 29 1 38 -3 43 -20z
m-1164 -29 c6 0 4 -7 -5 -15 -8 -9 -13 -21 -10 -28 3 -8 -6 -12 -26 -12 -21 0
-30 5 -30 17 0 9 -5 20 -12 24 -7 5 -4 10 10 15 12 5 22 16 22 26 0 14 3 14
20 -5 12 -12 25 -22 31 -22z m-221 5 c0 -9 9 -15 22 -15 17 0 19 -3 10 -12 -7
-7 -12 -21 -12 -31 0 -14 -5 -17 -16 -13 -9 4 -23 1 -30 -5 -11 -9 -14 -7 -14
9 0 12 -4 24 -10 27 -15 9 -12 25 5 25 9 0 18 7 21 15 4 8 10 15 15 15 5 0 9
-7 9 -15z m-334 -25 c14 0 15 -3 6 -12 -7 -7 -12 -23 -12 -36 0 -20 -3 -22
-14 -13 -7 6 -20 9 -28 6 -9 -4 -18 1 -22 12 -3 10 -9 24 -12 31 -3 7 1 12 10
12 9 0 19 7 23 16 6 16 7 16 18 0 7 -9 20 -16 31 -16z m158 15 c3 -8 13 -15
22 -15 13 0 14 -3 4 -15 -7 -8 -10 -21 -7 -28 3 -9 -5 -13 -29 -13 -26 0 -34
4 -34 17 0 10 -4 21 -10 24 -16 10 -12 25 5 19 8 -4 17 1 21 10 8 20 20 21 28
1z m-369 -15 c3 -5 16 -10 28 -10 20 -1 20 -2 5 -11 -10 -5 -18 -18 -18 -28 0
-13 -8 -18 -30 -18 -22 0 -30 5 -30 18 0 10 -5 21 -11 25 -7 4 -2 11 13 19 29
17 35 17 43 5z m477 -162 c-6 -6 -8 -16 -6 -22 3 -8 -8 -12 -31 -13 -19 -1
-33 3 -30 8 3 5 1 18 -5 29 -8 16 -8 20 4 20 8 0 17 9 21 19 5 18 7 18 31 -6
17 -17 22 -29 16 -35z m191 22 c18 0 19 -2 5 -17 -9 -10 -14 -23 -12 -28 3 -7
-10 -11 -30 -11 -24 0 -32 4 -29 13 3 7 0 20 -7 28 -10 12 -10 15 3 15 9 0 19
10 23 23 l7 22 10 -22 c6 -13 19 -23 30 -23z m-365 -10 c12 0 13 -3 4 -12 -7
-7 -12 -20 -12 -29 0 -29 -53 -20 -66 11 -9 21 -8 26 8 32 10 4 18 15 18 25 0
15 3 14 16 -5 8 -12 23 -22 32 -22z m1632 21 c0 -11 -4 -22 -9 -26 -6 -3 -133
-10 -283 -15 -150 -5 -330 -12 -400 -16 -123 -6 -126 -6 -138 16 -6 12 -10 23
-8 25 3 3 634 31 766 34 65 1 72 -1 72 -18z m-2005 -31 c17 0 20 -16 5 -25 -6
-4 -8 -15 -5 -26 8 -23 -8 -25 -29 -3 -16 16 -22 65 -9 78 4 3 11 0 15 -9 5
-8 16 -15 23 -15z m185 0 c7 0 10 -7 6 -16 -3 -9 -6 -25 -6 -36 0 -16 -3 -18
-13 -10 -7 6 -23 9 -35 5 -17 -4 -21 -2 -16 10 3 8 0 18 -6 22 -7 5 -3 14 12
29 19 18 25 20 34 9 6 -7 17 -13 24 -13z m278 -154 c-4 -6 -8 -17 -8 -25 0
-11 -10 -16 -29 -17 -25 -1 -30 3 -33 25 -2 15 5 33 17 46 l20 20 21 -20 c11
-11 17 -24 12 -29z m157 44 c3 -5 16 -10 27 -10 20 0 20 -1 5 -18 -10 -10 -17
-26 -17 -36 0 -11 -4 -14 -12 -9 -7 4 -21 6 -30 5 -12 -2 -18 3 -18 15 0 11
-5 24 -12 31 -9 9 -7 12 10 12 12 0 22 5 22 10 0 6 4 10 9 10 6 0 13 -4 16
-10z m-525 -40 c7 0 10 -7 6 -16 -3 -9 -6 -25 -6 -36 0 -16 -3 -18 -13 -10 -7
6 -23 9 -35 5 -17 -4 -21 -2 -16 10 3 8 1 18 -5 22 -16 9 -13 25 4 25 9 0 18
7 22 16 6 16 7 16 18 0 7 -9 18 -16 25 -16z m160 20 c0 -5 9 -10 20 -10 21 0
27 -15 10 -25 -5 -3 -10 -14 -10 -23 0 -12 -8 -17 -30 -17 -24 0 -30 4 -30 23
0 12 -5 22 -11 22 -5 0 -7 5 -4 10 4 6 11 8 16 5 5 -4 12 1 15 9 7 18 24 22
24 6z m1710 -3 c0 -8 -8 -21 -18 -31 -16 -14 -62 -18 -310 -27 l-292 -10 -30
22 c-16 13 -27 25 -24 28 5 5 426 27 587 29 67 2 87 -1 87 -11z m360 -14 c0
-20 -52 -282 -61 -313 -28 -87 -95 -161 -134 -147 -17 7 -28 86 -19 143 5 33
17 58 40 84 43 47 73 115 74 162 0 36 0 37 35 31 23 -4 35 -2 35 6 0 6 -4 11
-8 11 -5 0 -17 7 -28 15 -18 13 -16 14 24 15 23 0 42 -3 42 -7z m-2372 -175
c47 -144 85 -318 75 -345 -6 -14 -51 -17 -70 -5 -21 14 -51 95 -64 175 -16
107 -4 267 21 267 4 0 21 -42 38 -92z m580 50 c11 -14 10 -18 -8 -28 -12 -6
-29 -9 -37 -6 -13 5 -12 10 8 29 13 13 24 23 24 23 1 -1 6 -9 13 -18z m-148
-18 c9 0 8 -6 -5 -20 -20 -22 -55 -26 -73 -8 -16 16 -15 28 3 28 9 0 18 7 22
15 5 14 7 14 23 0 9 -8 23 -15 30 -15z m-197 4 c9 -4 17 -10 17 -15 0 -16 -45
-20 -75 -8 -28 12 -29 13 -7 16 12 3 22 9 22 15 0 5 6 7 13 4 6 -3 20 -9 30
-12z m2405 -845 c27 -82 46 -151 43 -153 -9 -6 -222 51 -232 61 -9 9 42 394
67 503 4 18 16 -17 40 -118 18 -79 55 -211 82 -293z m-398 302 c0 -26 -50
-294 -56 -300 -7 -7 -74 60 -90 90 -7 15 -16 45 -20 67 -5 35 -3 42 21 58 15
11 50 38 78 61 60 48 67 50 67 24z m634 -790 c9 -14 -21 -21 -96 -21 -80 0
-84 7 -11 20 68 11 101 11 107 1z m60 -92 c-3 -5 -37 -9 -76 -9 -83 0 -84 10
-1 19 62 7 86 4 77 -10z m-1979 -29 c13 -5 14 -9 5 -9 -8 0 -24 4 -35 9 -13 5
-14 9 -5 9 8 0 24 -4 35 -9z"/>
<path d="M2106 1923 c-10 -11 -7 -113 4 -113 6 0 15 12 21 27 15 40 -4 107
-25 86z"/>
<path d="M2252 1793 c-10 -16 -25 -39 -31 -53 -10 -20 -5 -17 23 12 20 21 36
45 36 53 0 21 -6 19 -28 -12z"/>
<path d="M1847 1674 c-3 -7 -14 -43 -23 -80 -8 -38 -23 -77 -32 -87 -11 -12
-12 -21 -5 -28 17 -17 184 -69 223 -69 81 0 285 78 294 113 9 35 7 77 -4 77
-5 0 -10 -4 -10 -10 0 -5 -13 -10 -28 -10 -29 0 -56 22 -76 62 -19 39 -41 32
-84 -26 -51 -66 -98 -86 -160 -68 -51 15 -74 43 -82 95 -3 23 -9 37 -13 31z"/>
<path d="M1995 1209 c-80 -10 -306 -89 -319 -111 -8 -13 -7 -21 1 -29 9 -9 42
-3 137 24 69 20 156 42 193 48 87 15 347 6 433 -16 36 -9 81 -15 100 -13 l35
3 -30 31 c-30 30 -32 31 -155 37 -69 4 -152 14 -185 22 -66 16 -118 17 -210 4z"/>
<path d="M2105 1069 c-22 -4 -93 -8 -157 -8 -108 -1 -118 -3 -118 -19 0 -12
14 -25 40 -37 34 -15 68 -18 210 -18 128 0 173 3 186 14 14 11 18 11 29 -4 16
-22 30 -6 39 46 l7 37 -98 -1 c-54 -1 -116 -5 -138 -10z"/>
<path d="M3570 1093 c0 -5 -7 -53 -15 -108 -24 -165 -25 -159 46 -180 34 -9
65 -13 69 -8 10 9 -79 303 -92 303 -4 0 -8 -3 -8 -7z"/>
<path d="M3187 1085 c-15 -14 -27 -32 -27 -39 0 -16 38 -66 50 -66 8 0 30 85
30 115 0 22 -22 18 -53 -10z"/>
</g>
</svg>
